<?xml version="1.0" encoding="UTF-8"?>
<svg width="32" height="32" viewBox="0 0 32 32" fill="none" xmlns="http://www.w3.org/2000/svg">
  <!-- Cube faces with different shades -->
  <path d="M16 4L28 10V22L16 28L4 22V10L16 4Z" fill="#2563eb" fill-opacity="0.2"/>
  <path d="M16 4L28 10L16 16L4 10L16 4Z" fill="#2563eb" fill-opacity="0.4"/>
  <path d="M16 16L28 10V22L16 28V16Z" fill="#2563eb" fill-opacity="0.3"/>
  <path d="M4 10V22L16 28V16L4 10Z" fill="#2563eb" fill-opacity="0.25"/>
  
  <!-- Outline for better visibility -->
  <path d="M16 4L28 10V22L16 28L4 22V10L16 4Z" stroke="#2563eb" stroke-width="1.5" stroke-linejoin="round" fill="none"/>
  <path d="M16 4L16 16M16 16L16 28M16 16L4 10M16 16L28 10" stroke="#2563eb" stroke-width="1" stroke-opacity="0.5"/>
  
  <style>
    path { 
      transition: all 0.2s ease;
    }
    @media (prefers-color-scheme: dark) {
      path {
        stroke: #60a5fa;
        fill: #60a5fa;
      }
    }
  </style>
</svg>
